<svg xmlns="http://www.w3.org/2000/svg" viewBox="0 0 64 64" fill="none" stroke="currentColor" stroke-width="2" stroke-linecap="round" stroke-linejoin="round">
  <path d="M12 32c0-11.046 8.954-20 20-20s20 8.954 20 20"/>
  <path d="M16 32c0-8.837 7.163-16 16-16s16 7.163 16 16"/>
  <path d="M20 32c0-6.627 5.373-12 12-12s12 5.373 12 12"/>
  <path d="M24 32a8 8 0 0 1 16 0"/>
  <path d="M28 32a4 4 0 0 1 8 0"/>
  <path d="M32 32v12"/>
  <path d="M8 32v8a24 24 0 0 0 24 24"/>
  <path d="M56 32v8a24 24 0 0 1-24 24"/>
</svg>